<svg id="圖層_1" data-name="圖層 1" xmlns="http://www.w3.org/2000/svg" viewBox="0 0 708.45 191.41"><defs><style>.cls-1,.cls-4{fill:#f60;}.cls-2{fill:none;stroke-linecap:round;stroke-width:10px;}.cls-2,.cls-4{stroke:#f60;}.cls-2,.cls-3,.cls-4{stroke-miterlimit:10;}.cls-3{stroke:#000;}.cls-3,.cls-4{stroke-width:4px;}</style></defs><title>未命名-1</title><path d="M183.79,118.49a28.24,28.24,0,0,1-27.23-27.24,1,1,0,0,1,.95-1H184.6l.17,27.26A1,1,0,0,1,183.79,118.49Z"/><path d="M95.57,158.85l43.91-95.92a2.3,2.3,0,0,0-2.78-3.15L95.57,72.7Z"/><path class="cls-1" d="M95.57,158.85,51.67,63a2.31,2.31,0,0,1,2.79-3.17L95.57,72.7Z"/><path class="cls-2" d="M184.33,95.24A89.27,89.27,0,1,1,95.07,6"/><path class="cls-3" d="M267.64,158.37c-.58-3.15-2.15-7.59-4.59-14.31l-30.63-82.6a140,140,0,0,0-7.16-17h17.52A7.42,7.42,0,0,1,250,50.07c.74,3.06,1.68,6.23,2.74,9.39l23.76,67.71c0,.09.07.18.11.28a3.5,3.5,0,0,0,6.59-.2l0-.08L307,59.46c1.28-4,2.12-6.72,2.73-9.18a7.73,7.73,0,0,1,7.52-5.85h17.23c-2,3.58-3.72,7.58-7.15,17l-30.64,82.6c-2.43,6.44-3.86,11-4.43,14.31Z"/><path class="cls-3" d="M368.12,122a2.33,2.33,0,0,0-2.3,2.63c.76,6.19,2.11,9.74,5,13.4,4.15,5.16,10.59,8,17.89,8,7,0,13-2.58,17.17-7.16a20.89,20.89,0,0,0,4.16-7.44L427,136.9c-3.3,6.87-5.16,9.59-8.73,13.17-7.45,7.3-17.47,11-29.49,11-25.34,0-41.37-16.89-41.37-43.66,0-26.48,15.89-43.8,40.37-43.8,16.74,0,29.91,8.3,35.64,22.62,2.72,6.87,3.72,12,4.15,21.75h0a4,4,0,0,1-4,4Zm39.29-14.17a1.51,1.51,0,0,0,1.47-1.79c-1-5.27-2.75-8.72-6-12-3.87-3.87-8.73-5.73-15.46-5.73-10.58,0-18.46,6.69-21.09,17.62a1.51,1.51,0,0,0,1.46,1.85Z"/><path class="cls-3" d="M504.18,89.79a4.66,4.66,0,0,1-5.6,3.28A32.82,32.82,0,0,0,490.21,92c-7.16,0-12.6,2.29-16.61,7-3.58,4.15-5,7.44-5.87,14.31v26.48a149.68,149.68,0,0,0,1,18.61H448.27a158.25,158.25,0,0,0,1-18.61V94.81c0-8.73-.14-12.74-1-18.6h19.46V87.63a.52.52,0,0,0,1,.26c5.27-9,13.83-13.26,25.94-13.26,3.44,0,6.88.43,13.32,1.58Z"/><path class="cls-4" d="M526.79,158.37a118.65,118.65,0,0,0,1.15-18.61V94.81c0-3.56-.06-6.5-.21-9.2a8.91,8.91,0,0,1,8.9-9.4h9.63v7.58c0,1.44,0,2.11-.09,3.48a.85.85,0,0,0,1.5.59c8.05-9.58,15.46-13.09,27.5-13.09,11,0,19.19,3.58,24.34,10.6,3.43,4.72,4.87,10.45,4.87,20v34.35a113.13,113.13,0,0,0,1.14,18.61H584.76a151.22,151.22,0,0,0,1-18.61V108c0-6-.72-9.87-2.44-12.59-2.29-3.72-6.58-5.87-12-5.87-10.31,0-18.75,7.16-25,21.33v28.91a128.64,128.64,0,0,0,1.14,18.61Z"/><path class="cls-4" d="M683.53,149.07c-5.73,5.43-9.31,7.44-15.18,9A50.43,50.43,0,0,1,655,159.8c-17.46,0-28.06-9-28.06-24.05,0-10,6.3-19,16.18-23.19,9.3-3.86,19.9-5.29,40.37-5.72v-7.3c0-8.3-5.59-12.6-16.47-12.6-5.72,0-11.59,1.58-14.88,4.15-2.72,2-4,4-5.73,9.16l-13.93-2.5a3.55,3.55,0,0,1-2.6-5c2.56-5.5,5.09-8.55,9.52-11.7,7-5.15,15-7.3,27.34-7.3,13.74,0,22,2.44,28.2,8.45,4.86,4.58,6.72,10,6.72,19.75v38.51c0,2.08,0,3.89.08,5.54a12,12,0,0,1-12,12.35h-6.21Zm0-22.62a6.9,6.9,0,0,0-7.3-6.88c-22,1.24-30.78,6.07-30.78,16.18,0,6.73,5,10.88,13,10.88,7.59,0,15-2.86,19.9-7.58a17.06,17.06,0,0,0,5.16-12.6Z"/></svg>